<svg width="20" height="20" viewBox="0 0 20 20" fill="none" xmlns="http://www.w3.org/2000/svg">
<g clip-path="url(#clip0_59_14)">
<path d="M13.125 0.625V1.875" stroke="white" stroke-width="1.5" stroke-linecap="round" stroke-linejoin="round"/>
<path d="M16.25 1.64218L15.625 2.6664" stroke="white" stroke-width="1.5" stroke-linecap="round" stroke-linejoin="round"/>
<path d="M18.4109 4.375L17.2359 4.75391" stroke="white" stroke-width="1.5" stroke-linecap="round" stroke-linejoin="round"/>
<path d="M6.52657 7.73438L6.07892 6.95313C5.89244 6.6301 5.58527 6.39438 5.225 6.29783C4.86472 6.20128 4.48085 6.2518 4.15782 6.43828C3.8348 6.62476 3.59908 6.93193 3.50253 7.2922C3.40598 7.65248 3.4565 8.03635 3.64298 8.35938L5.12735 10.9305" stroke="white" stroke-width="1.5" stroke-linecap="round" stroke-linejoin="round"/>
<path d="M8.55858 11.25L6.52733 7.73437C6.43097 7.57431 6.36746 7.39665 6.34053 7.21177C6.31359 7.0269 6.32377 6.8385 6.37046 6.6576C6.41715 6.4767 6.49942 6.30692 6.61246 6.15817C6.7255 6.00942 6.86705 5.88468 7.02884 5.79125C7.19063 5.69782 7.36942 5.63757 7.55476 5.61401C7.7401 5.59045 7.92827 5.60406 8.10829 5.65404C8.28831 5.70402 8.45657 5.78937 8.60323 5.90511C8.7499 6.02085 8.87203 6.16465 8.96249 6.32812L11.8101 11.25" stroke="white" stroke-width="1.5" stroke-linecap="round" stroke-linejoin="round"/>
<path d="M7.96875 4.60937L7.52188 3.82812C7.42954 3.66818 7.3066 3.52798 7.16009 3.41555C7.01357 3.30311 6.84635 3.22064 6.66796 3.17283C6.48957 3.12502 6.30351 3.11282 6.1204 3.13692C5.93729 3.16102 5.76073 3.22094 5.60078 3.31328C5.44084 3.40561 5.30064 3.52855 5.18821 3.67507C5.07577 3.82158 4.9933 3.98881 4.94549 4.1672C4.89768 4.34559 4.88548 4.53165 4.90958 4.71475C4.93367 4.89786 4.9936 5.07443 5.08594 5.23437L6.07891 6.95312" stroke="white" stroke-width="1.5" stroke-linecap="round" stroke-linejoin="round"/>
<path d="M8.96171 6.32812L7.96874 4.60937C7.87237 4.44931 7.80887 4.27165 7.78193 4.08677C7.755 3.9019 7.76517 3.7135 7.81186 3.5326C7.85855 3.3517 7.94082 3.18192 8.05387 3.03317C8.16691 2.88442 8.30846 2.75968 8.47025 2.66625C8.63204 2.57282 8.81083 2.51257 8.99617 2.48901C9.1815 2.46545 9.36968 2.47906 9.5497 2.52904C9.72972 2.57902 9.89797 2.66437 10.0446 2.78011C10.1913 2.89585 10.3134 3.03965 10.4039 3.20312L13.2945 8.20312" stroke="white" stroke-width="1.5" stroke-linecap="round" stroke-linejoin="round"/>
<path d="M15.5469 14.6688C16.4002 13.7904 16.9436 12.6575 17.0945 11.4422C17.2453 10.2269 16.9955 8.99553 16.3828 7.93516L14.7352 5.07813C14.6428 4.91818 14.5199 4.77799 14.3734 4.66555C14.2269 4.55312 14.0596 4.47064 13.8812 4.42283C13.521 4.32628 13.1371 4.3768 12.8141 4.56328C12.491 4.74976 12.2553 5.05693 12.1588 5.4172C12.0622 5.77748 12.1127 6.16135 12.2992 6.48438" stroke="white" stroke-width="1.5" stroke-linecap="round" stroke-linejoin="round"/>
<path d="M6.39139 13.125L4.8117 10.3906C4.62522 10.0676 4.31806 9.83188 3.95779 9.73533C3.59751 9.63877 3.21364 9.68929 2.89061 9.87578C2.56759 10.0623 2.33187 10.3694 2.23532 10.7297C2.13877 11.09 2.18929 11.4738 2.37577 11.7969L3.12499 13.093L5.12733 16.5625C5.87325 17.8545 7.10187 18.7973 8.54289 19.1834C9.98392 19.5695 11.5193 19.3674 12.8113 18.6215C14.1033 17.8756 15.0461 16.6469 15.4322 15.2059C15.8183 13.7649 15.6162 12.2295 14.8703 10.9375L13.2922 8.20312C13.2043 8.03506 13.0833 7.88653 12.9365 7.76645C12.7897 7.64637 12.6201 7.55723 12.4379 7.50439C12.2558 7.45154 12.0648 7.43609 11.8765 7.45896C11.6883 7.48183 11.5066 7.54255 11.3424 7.63746C11.1782 7.73238 11.0349 7.85952 10.9211 8.01126C10.8073 8.16299 10.7254 8.33617 10.6802 8.52039C10.6351 8.7046 10.6277 8.89604 10.6585 9.08318C10.6893 9.27033 10.7576 9.44931 10.8594 9.60937" stroke="white" stroke-width="1.5" stroke-linecap="round" stroke-linejoin="round"/>
</g>
<defs>
<clipPath id="clip0_59_14">
<rect width="20" height="20" fill="white"/>
</clipPath>
</defs>
</svg>
