<svg width="384" height="240" viewBox="0 0 384 240" fill="none" xmlns="http://www.w3.org/2000/svg">
<path d="M78.9783 189.035C78.9783 190.175 79.1578 191.21 79.5167 192.139C79.8756 193.046 80.4033 193.817 81.1 194.45C81.7967 195.084 82.6411 195.569 83.6333 195.907C84.6256 196.224 85.7761 196.382 87.085 196.382C88.0561 196.382 88.9217 196.297 89.6817 196.129C90.4628 195.939 91.1489 195.664 91.74 195.305C92.3311 194.946 92.8272 194.503 93.2283 193.975C93.6294 193.447 93.9461 192.856 94.1783 192.202H98.2317C98.0417 193.574 97.5983 194.777 96.9017 195.812C96.205 196.846 95.3394 197.701 94.305 198.377C93.2706 199.052 92.0989 199.57 90.79 199.929C89.5022 200.266 88.1617 200.435 86.7683 200.435C84.995 200.435 83.3589 200.182 81.86 199.675C80.3822 199.147 79.0944 198.398 77.9967 197.427C76.92 196.456 76.0756 195.263 75.4633 193.849C74.8511 192.434 74.545 190.83 74.545 189.035C74.545 187.22 74.8511 185.605 75.4633 184.19C76.0967 182.776 76.9517 181.583 78.0283 180.612C79.1261 179.641 80.4244 178.902 81.9233 178.395C83.4433 177.889 85.09 177.635 86.8633 177.635C88.2567 177.635 89.5972 177.804 90.885 178.142C92.1939 178.459 93.3656 178.965 94.4 179.662C95.4344 180.337 96.2894 181.214 96.965 182.29C97.6617 183.367 98.0839 184.665 98.2317 186.185H94.1783C93.9672 185.446 93.6611 184.802 93.26 184.254C92.8589 183.684 92.3628 183.209 91.7717 182.829C91.2017 182.449 90.5156 182.153 89.7133 181.942C88.9322 181.731 88.035 181.625 87.0217 181.625C85.7339 181.625 84.5939 181.794 83.6017 182.132C82.6094 182.47 81.765 182.966 81.0683 183.62C80.3928 184.254 79.8756 185.024 79.5167 185.932C79.1578 186.84 78.9783 187.874 78.9783 189.035ZM113.065 196.35C114.311 196.35 115.451 196.171 116.485 195.812C117.52 195.432 118.406 194.925 119.145 194.292C119.905 193.637 120.496 192.856 120.919 191.949C121.362 191.041 121.584 190.059 121.584 189.004C121.584 187.948 121.372 186.977 120.95 186.09C120.528 185.182 119.937 184.401 119.177 183.747C118.417 183.092 117.509 182.586 116.454 182.227C115.419 181.847 114.3 181.657 113.097 181.657C111.872 181.657 110.743 181.847 109.709 182.227C108.674 182.586 107.777 183.092 107.017 183.747C106.257 184.401 105.655 185.182 105.212 186.09C104.79 186.977 104.579 187.959 104.579 189.035C104.579 190.091 104.79 191.072 105.212 191.98C105.655 192.867 106.257 193.637 107.017 194.292C107.777 194.925 108.674 195.432 109.709 195.812C110.743 196.171 111.862 196.35 113.065 196.35ZM100.367 189.004C100.367 187.294 100.715 185.742 101.412 184.349C102.109 182.934 103.037 181.731 104.199 180.739C105.36 179.746 106.711 178.986 108.252 178.459C109.814 177.91 111.45 177.635 113.16 177.635C114.87 177.635 116.485 177.91 118.005 178.459C119.525 178.986 120.866 179.746 122.027 180.739C123.188 181.731 124.106 182.934 124.782 184.349C125.457 185.742 125.795 187.294 125.795 189.004C125.795 190.735 125.457 192.307 124.782 193.722C124.106 195.115 123.188 196.308 122.027 197.3C120.866 198.292 119.515 199.063 117.974 199.612C116.454 200.161 114.828 200.435 113.097 200.435C111.387 200.435 109.761 200.161 108.22 199.612C106.679 199.063 105.328 198.292 104.167 197.3C103.006 196.308 102.077 195.115 101.38 193.722C100.705 192.307 100.367 190.735 100.367 189.004ZM128.966 200.087V177.984H132.925L147.238 193.722V177.984H151.45V200.087H147.491L133.178 184.222V200.087H128.966ZM162.462 200.087V181.562H154.197V177.984H174.97V181.562H166.673V200.087H162.462ZM177.734 200.087V177.984H181.946V200.087H177.734ZM186.177 200.087V177.984H190.135L204.448 193.722V177.984H208.66V200.087H204.702L190.388 184.222V200.087H186.177ZM212.294 177.984H216.537V190.397C216.537 191.326 216.674 192.17 216.949 192.93C217.244 193.669 217.656 194.313 218.184 194.862C218.733 195.39 219.419 195.801 220.242 196.097C221.065 196.371 222.015 196.509 223.092 196.509C224.19 196.509 225.14 196.361 225.942 196.065C226.765 195.77 227.441 195.358 227.969 194.83C228.497 194.302 228.887 193.659 229.14 192.899C229.415 192.139 229.552 191.305 229.552 190.397V177.984H233.732V190.492C233.732 191.695 233.553 192.899 233.194 194.102C232.856 195.284 232.275 196.34 231.452 197.269C230.629 198.197 229.531 198.957 228.159 199.549C226.808 200.14 225.129 200.435 223.124 200.435C221.097 200.435 219.398 200.14 218.025 199.549C216.653 198.957 215.545 198.197 214.7 197.269C213.856 196.319 213.244 195.252 212.864 194.07C212.484 192.888 212.294 191.695 212.294 190.492V177.984ZM249.04 196.35C250.286 196.35 251.426 196.171 252.46 195.812C253.495 195.432 254.381 194.925 255.12 194.292C255.88 193.637 256.471 192.856 256.894 191.949C257.337 191.041 257.559 190.059 257.559 189.004C257.559 187.948 257.347 186.977 256.925 186.09C256.503 185.182 255.912 184.401 255.152 183.747C254.392 183.092 253.484 182.586 252.429 182.227C251.394 181.847 250.275 181.657 249.072 181.657C247.847 181.657 246.718 181.847 245.684 182.227C244.649 182.586 243.752 183.092 242.992 183.747C242.232 184.401 241.63 185.182 241.187 186.09C240.765 186.977 240.554 187.959 240.554 189.035C240.554 190.091 240.765 191.072 241.187 191.98C241.63 192.867 242.232 193.637 242.992 194.292C243.752 194.925 244.649 195.432 245.684 195.812C246.718 196.171 247.837 196.35 249.04 196.35ZM236.342 189.004C236.342 187.294 236.69 185.742 237.387 184.349C238.084 182.934 239.012 181.731 240.174 180.739C241.335 179.746 242.686 178.986 244.227 178.459C245.789 177.91 247.425 177.635 249.135 177.635C250.845 177.635 252.46 177.91 253.98 178.459C255.5 178.986 256.841 179.746 258.002 180.739C259.163 181.731 260.081 182.934 260.757 184.349C261.432 185.742 261.77 187.294 261.77 189.004C261.77 190.735 261.432 192.307 260.757 193.722C260.081 195.115 259.163 196.308 258.002 197.3C256.841 198.292 255.49 199.063 253.949 199.612C252.429 200.161 250.803 200.435 249.072 200.435C247.362 200.435 245.736 200.161 244.195 199.612C242.654 199.063 241.303 198.292 240.142 197.3C238.981 196.308 238.052 195.115 237.355 193.722C236.68 192.307 236.342 190.735 236.342 189.004ZM264.34 177.984H268.583V190.397C268.583 191.326 268.72 192.17 268.995 192.93C269.29 193.669 269.702 194.313 270.23 194.862C270.779 195.39 271.465 195.801 272.288 196.097C273.111 196.371 274.061 196.509 275.138 196.509C276.236 196.509 277.186 196.361 277.988 196.065C278.811 195.77 279.487 195.358 280.015 194.83C280.542 194.302 280.933 193.659 281.186 192.899C281.461 192.139 281.598 191.305 281.598 190.397V177.984H285.778V190.492C285.778 191.695 285.599 192.899 285.24 194.102C284.902 195.284 284.321 196.34 283.498 197.269C282.675 198.197 281.577 198.957 280.205 199.549C278.854 200.14 277.175 200.435 275.17 200.435C273.143 200.435 271.444 200.14 270.071 199.549C268.699 198.957 267.591 198.197 266.746 197.269C265.902 196.319 265.29 195.252 264.91 194.07C264.53 192.888 264.34 191.695 264.34 190.492V177.984ZM288.324 193.595H293.011C293.117 194.207 293.37 194.714 293.771 195.115C294.193 195.516 294.7 195.833 295.291 196.065C295.882 196.297 296.516 196.456 297.191 196.54C297.888 196.625 298.574 196.667 299.249 196.667C300.284 196.667 301.171 196.593 301.909 196.445C302.669 196.276 303.292 196.055 303.778 195.78C304.263 195.506 304.622 195.189 304.854 194.83C305.108 194.471 305.234 194.081 305.234 193.659C305.234 193.025 304.897 192.54 304.221 192.202C303.546 191.864 302.564 191.547 301.276 191.252L295.988 190.08C294.953 189.848 293.993 189.574 293.106 189.257C292.219 188.919 291.449 188.518 290.794 188.054C290.14 187.568 289.623 186.998 289.243 186.344C288.884 185.689 288.704 184.908 288.704 184C288.704 182.902 289 181.952 289.591 181.15C290.182 180.348 290.963 179.694 291.934 179.187C292.906 178.659 294.014 178.279 295.259 178.047C296.526 177.794 297.835 177.667 299.186 177.667C300.601 177.667 301.909 177.794 303.113 178.047C304.337 178.279 305.403 178.67 306.311 179.219C307.24 179.746 307.968 180.454 308.496 181.34C309.024 182.206 309.319 183.282 309.383 184.57H304.601C304.517 184 304.316 183.525 303.999 183.145C303.683 182.765 303.261 182.459 302.733 182.227C302.226 181.995 301.646 181.836 300.991 181.752C300.358 181.646 299.693 181.594 298.996 181.594C298.194 181.594 297.466 181.646 296.811 181.752C296.157 181.857 295.608 182.026 295.164 182.259C294.721 182.491 294.383 182.776 294.151 183.114C293.919 183.43 293.803 183.8 293.803 184.222C293.803 184.517 293.866 184.792 293.993 185.045C294.141 185.277 294.362 185.499 294.658 185.71C294.974 185.9 295.365 186.08 295.829 186.249C296.294 186.417 296.853 186.565 297.508 186.692L302.543 187.832C303.577 188.064 304.548 188.328 305.456 188.624C306.364 188.898 307.156 189.257 307.831 189.7C308.507 190.144 309.045 190.692 309.446 191.347C309.847 191.98 310.048 192.772 310.048 193.722C310.048 194.841 309.752 195.812 309.161 196.635C308.591 197.459 307.81 198.145 306.818 198.694C305.826 199.242 304.675 199.654 303.366 199.929C302.057 200.203 300.674 200.34 299.218 200.34C297.529 200.34 296.009 200.192 294.658 199.897C293.328 199.58 292.188 199.137 291.238 198.567C290.288 197.976 289.559 197.258 289.053 196.414C288.567 195.569 288.324 194.63 288.324 193.595ZM114.829 232.055L105.677 210.554H108.274L116.285 229.522L124.455 210.554H127.052L117.71 232.055H114.829ZM128.989 232.055V210.554H145.899V212.644H131.395V219.42H144.474V221.415H131.395V229.934H145.709V232.055H128.989ZM149.028 232.055V210.554H151.466L166.951 228.414V210.554H169.358V232.055H166.919L151.434 214.132V232.055H149.028ZM180.883 232.055V212.644H172.396V210.554H191.744V212.644H183.258V232.055H180.883ZM193.887 210.554H196.325V222.619C196.325 223.695 196.463 224.698 196.737 225.627C197.012 226.535 197.444 227.326 198.035 228.002C198.627 228.677 199.397 229.205 200.347 229.585C201.297 229.965 202.458 230.155 203.83 230.155C205.182 230.155 206.332 229.965 207.282 229.585C208.253 229.205 209.034 228.677 209.625 228.002C210.238 227.326 210.681 226.535 210.955 225.627C211.23 224.698 211.367 223.695 211.367 222.619V210.554H213.71V222.777C213.71 224.17 213.51 225.458 213.109 226.64C212.729 227.801 212.138 228.815 211.335 229.68C210.533 230.525 209.509 231.19 208.264 231.675C207.039 232.161 205.572 232.404 203.862 232.404C202.131 232.404 200.643 232.161 199.397 231.675C198.152 231.19 197.117 230.525 196.294 229.68C195.492 228.815 194.89 227.791 194.489 226.609C194.088 225.426 193.887 224.149 193.887 222.777V210.554ZM235.627 232.055H232.967L228.818 223.949H220.427V232.055H218.02V210.554H229.198C229.958 210.554 230.729 210.67 231.51 210.902C232.312 211.113 233.02 211.482 233.632 212.01C234.265 212.517 234.772 213.182 235.152 214.005C235.553 214.829 235.753 215.852 235.753 217.077C235.753 217.985 235.637 218.819 235.405 219.579C235.194 220.339 234.877 221.004 234.455 221.574C234.054 222.144 233.579 222.608 233.03 222.967C232.502 223.305 231.911 223.526 231.257 223.632L235.627 232.055ZM220.427 221.954H229.293C229.821 221.954 230.328 221.88 230.813 221.732C231.299 221.563 231.732 221.289 232.112 220.909C232.492 220.529 232.798 220.022 233.03 219.389C233.262 218.755 233.378 217.974 233.378 217.045C233.378 216.095 233.22 215.335 232.903 214.765C232.587 214.174 232.207 213.731 231.763 213.435C231.341 213.119 230.877 212.907 230.37 212.802C229.885 212.696 229.462 212.644 229.103 212.644H220.427V221.954ZM239.142 232.055V210.554H256.052V212.644H241.548V219.42H254.627V221.415H241.548V229.934H255.862V232.055H239.142ZM257.724 226.925H260.321C260.511 227.537 260.859 228.055 261.366 228.477C261.893 228.899 262.506 229.237 263.202 229.49C263.92 229.744 264.691 229.923 265.514 230.029C266.337 230.134 267.15 230.187 267.952 230.187C269.092 230.187 270.106 230.092 270.992 229.902C271.9 229.691 272.66 229.406 273.272 229.047C273.906 228.688 274.391 228.255 274.729 227.749C275.067 227.221 275.236 226.64 275.236 226.007C275.236 225.12 274.803 224.445 273.937 223.98C273.072 223.495 271.837 223.083 270.232 222.745L264.912 221.637C263.772 221.405 262.769 221.12 261.904 220.782C261.038 220.423 260.321 220.011 259.751 219.547C259.202 219.082 258.79 218.555 258.516 217.964C258.241 217.372 258.104 216.707 258.104 215.969C258.104 214.955 258.378 214.079 258.927 213.34C259.476 212.601 260.194 212.01 261.081 211.567C261.988 211.102 263.012 210.765 264.152 210.554C265.292 210.342 266.453 210.237 267.636 210.237C269.05 210.237 270.306 210.353 271.404 210.585C272.523 210.817 273.483 211.166 274.286 211.63C275.109 212.095 275.763 212.696 276.249 213.435C276.734 214.174 277.051 215.061 277.199 216.095H274.602C274.412 215.377 274.106 214.786 273.684 214.322C273.262 213.836 272.744 213.467 272.132 213.214C271.52 212.939 270.823 212.749 270.042 212.644C269.282 212.538 268.469 212.485 267.604 212.485C266.696 212.485 265.831 212.559 265.007 212.707C264.205 212.834 263.487 213.045 262.854 213.34C262.221 213.636 261.714 214.016 261.334 214.48C260.975 214.924 260.796 215.472 260.796 216.127C260.796 216.507 260.88 216.866 261.049 217.204C261.218 217.52 261.482 217.826 261.841 218.122C262.221 218.396 262.706 218.65 263.297 218.882C263.909 219.114 264.659 219.325 265.546 219.515L270.771 220.655C271.889 220.887 272.892 221.151 273.779 221.447C274.666 221.742 275.404 222.091 275.996 222.492C276.587 222.893 277.041 223.389 277.357 223.98C277.695 224.571 277.864 225.279 277.864 226.102C277.864 227.115 277.611 228.012 277.104 228.794C276.597 229.554 275.89 230.208 274.982 230.757C274.096 231.285 273.04 231.686 271.816 231.96C270.612 232.235 269.303 232.372 267.889 232.372C266.348 232.372 264.965 232.235 263.741 231.96C262.537 231.686 261.503 231.316 260.637 230.852C259.793 230.366 259.117 229.796 258.611 229.142C258.125 228.466 257.829 227.727 257.724 226.925Z" fill="#D49C4D"/>
<path d="M2 5C31.6253 77.2793 105.518 128.5 192 128.5M2 5C52.4672 50.0533 119.036 77.4375 192 77.4375M2 5V200.937M192 128.5C278.482 128.5 352.375 77.2764 382 5M192 128.5C119.034 128.5 52.4664 155.882 2 200.937M192 128.5C264.966 128.5 331.534 155.885 382 200.937M382 5C331.533 50.0504 264.964 77.4375 192 77.4375M382 5V200.937M192 77.4375C278.48 77.4375 352.375 128.656 382 200.937M192 77.4375C105.52 77.4375 31.622 128.656 2 200.937" stroke="#D49C4D" stroke-width="3.8"/>
<path d="M316.744 177.863C317.163 177.863 317.551 177.785 317.909 177.63C318.267 177.468 318.575 177.255 318.831 176.991C319.095 176.721 319.304 176.404 319.46 176.039C319.615 175.667 319.693 175.272 319.693 174.853C319.693 174.428 319.615 174.032 319.46 173.668C319.311 173.303 319.108 172.989 318.852 172.725C318.595 172.462 318.288 172.256 317.929 172.107C317.571 171.958 317.186 171.884 316.774 171.884C316.355 171.884 315.967 171.962 315.609 172.117C315.251 172.266 314.94 172.475 314.677 172.746C314.413 173.009 314.207 173.323 314.059 173.688C313.91 174.053 313.836 174.448 313.836 174.874C313.836 175.292 313.907 175.684 314.048 176.049C314.197 176.414 314.403 176.731 314.667 177.002C314.93 177.265 315.241 177.474 315.599 177.63C315.957 177.785 316.339 177.863 316.744 177.863ZM316.724 178.542C316.21 178.542 315.734 178.447 315.295 178.258C314.856 178.069 314.471 177.809 314.14 177.478C313.815 177.147 313.562 176.758 313.38 176.312C313.197 175.86 313.106 175.38 313.106 174.874C313.106 174.353 313.197 173.87 313.38 173.424C313.562 172.979 313.819 172.59 314.15 172.259C314.481 171.928 314.866 171.668 315.305 171.479C315.744 171.29 316.227 171.195 316.754 171.195C317.267 171.195 317.747 171.29 318.193 171.479C318.639 171.661 319.021 171.918 319.338 172.249C319.662 172.573 319.916 172.958 320.098 173.404C320.287 173.843 320.382 174.326 320.382 174.853C320.382 175.367 320.287 175.85 320.098 176.302C319.909 176.755 319.652 177.147 319.328 177.478C319.004 177.809 318.619 178.069 318.173 178.258C317.727 178.447 317.244 178.542 316.724 178.542ZM318.325 176.586H317.524L316.906 175.35H316.379V176.586H315.649V173.039H317.169C317.298 173.039 317.426 173.06 317.555 173.1C317.69 173.134 317.811 173.195 317.919 173.283C318.027 173.364 318.115 173.475 318.183 173.617C318.25 173.759 318.284 173.931 318.284 174.134C318.284 174.39 318.223 174.617 318.102 174.813C317.98 175.002 317.811 175.13 317.595 175.198L318.325 176.586ZM316.379 174.782H317.129C317.176 174.782 317.227 174.776 317.281 174.762C317.335 174.742 317.382 174.711 317.423 174.671C317.463 174.63 317.497 174.573 317.524 174.499C317.551 174.418 317.565 174.316 317.565 174.195C317.565 174.066 317.548 173.965 317.514 173.891C317.487 173.816 317.45 173.762 317.403 173.728C317.355 173.688 317.305 173.661 317.251 173.647C317.203 173.634 317.159 173.627 317.119 173.627H316.379V174.782Z" fill="#D49C4D"/>
</svg>
