<svg width="24" height="24" viewBox="0 0 24 24" fill="none" xmlns="http://www.w3.org/2000/svg">
    <path
        d="M20.9859 4.41739C20.9637 4.05169 20.8084 3.70678 20.5494 3.44772C20.2903 3.18865 19.9454 3.03336 19.5797 3.01114C18.4003 2.94082 15.3862 3.04864 12.885 5.54895L12.4397 5.99989H6.97124C6.7735 5.99877 6.57752 6.03699 6.39468 6.11231C6.21185 6.18763 6.04581 6.29856 5.90624 6.43864L2.69062 9.65614C2.49341 9.85321 2.35503 10.1013 2.29101 10.3727C2.22698 10.644 2.23984 10.9278 2.32815 11.1923C2.41646 11.4567 2.57672 11.6913 2.79094 11.8697C3.00517 12.0482 3.26488 12.1634 3.54093 12.2024L7.14749 12.7058L11.2922 16.8505L11.7956 20.459C11.8343 20.735 11.9495 20.9947 12.1281 21.2088C12.3067 21.4228 12.5416 21.5827 12.8062 21.6702C12.9604 21.7217 13.1218 21.748 13.2844 21.748C13.4812 21.7484 13.6761 21.7098 13.8579 21.6345C14.0397 21.5592 14.2048 21.4487 14.3437 21.3093L17.5612 18.0936C17.7013 17.9541 17.8122 17.788 17.8876 17.6052C17.9629 17.4224 18.0011 17.2264 18 17.0286V11.5602L18.4472 11.113C20.9484 8.61176 21.0562 5.5977 20.9859 4.41739ZM6.97124 7.49989H10.9397L7.23374 11.2049L3.74999 10.7193L6.97124 7.49989ZM13.9472 6.61395C14.6679 5.88883 15.535 5.32583 16.4906 4.96256C17.4462 4.59929 18.4684 4.44411 19.4887 4.50739C19.5545 5.52831 19.4009 6.55147 19.0384 7.5081C18.6758 8.46474 18.1127 9.3327 17.3869 10.0536L12 15.4386L8.56124 11.9999L13.9472 6.61395ZM16.5 17.0286L13.2816 20.2499L12.795 16.7652L16.5 13.0602V17.0286ZM9.54749 17.9193C9.12562 18.8436 7.71468 20.9999 3.74999 20.9999C3.55108 20.9999 3.36031 20.9209 3.21966 20.7802C3.07901 20.6396 2.99999 20.4488 2.99999 20.2499C2.99999 16.2852 5.15624 14.8743 6.08062 14.4515C6.17024 14.4106 6.26704 14.3878 6.36549 14.3843C6.46394 14.3808 6.5621 14.3968 6.65438 14.4313C6.74666 14.4657 6.83124 14.518 6.9033 14.5852C6.97537 14.6524 7.03349 14.7331 7.07437 14.8227C7.11524 14.9123 7.13806 15.0091 7.14152 15.1076C7.14499 15.206 7.12903 15.3042 7.09455 15.3965C7.06008 15.4887 7.00777 15.5733 6.94061 15.6454C6.87344 15.7175 6.79274 15.7756 6.70312 15.8165C6.1003 16.0911 4.76999 16.9752 4.53562 19.4643C7.02468 19.2299 7.91062 17.8996 8.18343 17.2968C8.2243 17.2071 8.28243 17.1264 8.35449 17.0593C8.42655 16.9921 8.51114 16.9398 8.60342 16.9053C8.69569 16.8709 8.79386 16.8549 8.89231 16.8584C8.99075 16.8618 9.08755 16.8846 9.17718 16.9255C9.26681 16.9664 9.34751 17.0245 9.41467 17.0966C9.48183 17.1686 9.53414 17.2532 9.56862 17.3455C9.60309 17.4378 9.61905 17.5359 9.61559 17.6344C9.61212 17.7328 9.5893 17.8296 9.54843 17.9193H9.54749Z"
        fill="white" />
</svg>